# xmcd
#
# Track frame offsets:
#	150
#	13976
#	32688
#	46468
#	61862
#	77893
#	94785
#	109929
#	125977
#	146219
#	159986
#	166851
#	184680
#	197987
#	214276
#
# Disc length: 3109 seconds
#
# Revision: 0
# Processed by: cddbd v1.4PL0 Copyright (c) Steve Scherf et al.
# Submitted via: dBpowerAMP V4.0
#
DISCID=dc0c230f
DTITLE=Tim McGraw - Greatest Hits
DYEAR=1900
DGENRE=Country
TTITLE0=Indian Outlaw
TTITLE1=Don't Take The Girl
TTITLE2=She Never Lets It Go To Her Heart
TTITLE3=I Like It, I Love It
TTITLE4=Just To See You Smile
TTITLE5=It's Your Love (With Faith Hill)
TTITLE6=Where The Green Grass Grows
TTITLE7=For A Little While
TTITLE8=Please Remember Me
TTITLE9=Something Like That
TTITLE10=My Best Friend
TTITLE11=Maybe We Should Just Sleep On It
TTITLE12=Down On The Farm
TTITLE13=My Next Thirty Years
TTITLE14=Let's Make Love (With Faith Hill)
EXTD=
EXTT0=
EXTT1=
EXTT2=
EXTT3=
EXTT4=
EXTT5=
EXTT6=
EXTT7=
EXTT8=
EXTT9=
EXTT10=
EXTT11=
EXTT12=
EXTT13=
EXTT14=
PLAYORDER=
